<svg width="24" height="25" viewBox="0 0 24 25" fill="none" xmlns="http://www.w3.org/2000/svg">
<path d="M6 22.5C5.45 22.5 4.979 22.304 4.587 21.912C4.195 21.52 3.99934 21.0493 4 20.5V8.5C4 7.95 4.196 7.479 4.588 7.087C4.98 6.695 5.45067 6.49933 6 6.5H8C8 5.4 8.39167 4.45833 9.175 3.675C9.95834 2.89167 10.9 2.5 12 2.5C13.1 2.5 14.0417 2.89167 14.825 3.675C15.6083 4.45833 16 5.4 16 6.5H18C18.55 6.5 19.021 6.696 19.413 7.088C19.805 7.48 20.0007 7.95067 20 8.5V20.5C20 21.05 19.804 21.521 19.412 21.913C19.02 22.305 18.5493 22.5007 18 22.5H6ZM6 20.5H18V8.5H16V10.5C16 10.7833 15.904 11.021 15.712 11.213C15.52 11.405 15.2827 11.5007 15 11.5C14.7167 11.5 14.479 11.404 14.287 11.212C14.095 11.02 13.9993 10.7827 14 10.5V8.5H10V10.5C10 10.7833 9.904 11.021 9.712 11.213C9.52 11.405 9.28267 11.5007 9 11.5C8.71667 11.5 8.479 11.404 8.287 11.212C8.095 11.02 7.99934 10.7827 8 10.5V8.5H6V20.5ZM10 6.5H14C14 5.95 13.804 5.479 13.412 5.087C13.02 4.695 12.5493 4.49933 12 4.5C11.45 4.5 10.979 4.696 10.587 5.088C10.195 5.48 9.99934 5.95067 10 6.5Z" fill="#191919"/>
</svg>
